<svg xmlns="http://www.w3.org/2000/svg" width="138" height="20" role="img" aria-label="Served by: Cloudflare">
  <title>Served by: Cloudflare</title>
  <linearGradient id="s" x2="0" y2="100%">
    <stop offset="0" stop-color="#bbb" stop-opacity=".1"/>
    <stop offset="1" stop-opacity=".1"/>
  </linearGradient>
  <clipPath id="r">
    <rect width="138" height="20" rx="3" fill="#fff"/>
  </clipPath>
  <g clip-path="url(#r)">
    <rect width="73" height="20" fill="#555"/>
    <rect x="73" width="65" height="20" fill="#f48120"/>
    <rect width="138" height="20" fill="url(#s)"/>
  </g>
  <g fill="#fff" text-anchor="middle" font-family="Verdana,Geneva,DejaVu Sans,sans-serif" text-rendering="geometricPrecision" font-size="110">
    <path d="M16.51 16.845c.147-.507.09-.97-.155-1.315-.225-.317-.605-.5-1.062-.52l-8.66-.113a.156.156 0 0 1-.133-.071.154.154 0 0 1-.02-.155c.027-.084.112-.148.203-.156l8.736-.112c1.035-.05 2.16-.887 2.554-1.914l.499-1.301c.022-.056.029-.113.015-.168-.563-2.546-2.835-4.445-5.55-4.445-2.504 0-4.629 1.618-5.388 3.861-.493-.366-1.119-.562-1.794-.499-1.203.119-2.166 1.083-2.286 2.286-.028.31-.007.613.063.894C1.568 13.17 0 14.775 0 16.752c0 .175.014.352.035.527.014.083.085.148.169.148h15.981c.091 0 .176-.065.203-.155l.12-.427zm2.757-5.563c-.077 0-.161 0-.238.01-.057 0-.106.042-.127.098l-.338 1.175c-.148.506-.092.97.154 1.316.226.316.606.498 1.063.52l1.843.113c.056 0 .106.026.133.07.028.043.035.107.021.156-.028.084-.113.149-.204.155l-1.92.113c-1.042.049-2.159.886-2.553 1.913l-.141.359c-.028.07.022.141.099.141h6.598c.077 0 .147-.049.169-.126.112-.408.176-.837.176-1.28 0-2.603-2.125-4.727-4.735-4.727z" transform="translate(4,3) scale(0.6)" fill="#fff"/>
    <text x="455" y="140" transform="scale(.1)" textLength="450">Served by</text>
    <text x="1055" y="140" transform="scale(.1)" textLength="550">Cloudflare</text>
  </g>
</svg>