<svg xmlns="http://www.w3.org/2000/svg" width="135" height="20" role="img" aria-label="Powered by: GitHub">
  <title>Powered by: GitHub</title>
  <linearGradient id="s" x2="0" y2="100%">
    <stop offset="0" stop-color="#bbb" stop-opacity=".1"/>
    <stop offset="1" stop-opacity=".1"/>
  </linearGradient>
  <clipPath id="r">
    <rect width="135" height="20" rx="3" fill="#fff"/>
  </clipPath>
  <g clip-path="url(#r)">
    <rect width="78" height="20" fill="#555"/>
    <rect x="78" width="57" height="20" fill="#24292e"/>
    <rect width="135" height="20" fill="url(#s)"/>
  </g>
  <g fill="#fff" text-anchor="middle" font-family="Verdana,Geneva,DejaVu Sans,sans-serif" text-rendering="geometricPrecision" font-size="110">
    <!-- GitHub Icon (White for better contrast) -->
    <path d="M9 3C6.51 3 4.5 5.01 4.5 7.5c0 2 .1 3.5 3.08 4.27.38.07.51-.17.51-.38 0-.19-.01-.82-.01-1.49-2.01.37-2.53-.49-2.69-.94-.09-.23-.48-.94-.82-1.13-.28-.15-.68-.52-.01-.53.63-.01 1.08.58 1.23.82.72 1.21 1.87.87 2.33.66.07-.52.28-.87.51-1.07-1.78-.2-3.64-.89-3.64-3.95 0-.87.31-1.59.82-2.15-.08-.2-.36-1.02.08-2.12 0 0 .67-.21 2.2.82 1.35-.44 2.8-.44 4.15 0 1.53-1.04 2.2-.82 2.2-.82.44 1.1.16 1.92.08 2.12.51.56.82 1.27.82 2.15 0 3.07-1.87 3.75-3.65 3.95.29.25.54.73.54 1.48 0 1.07-.01 1.93-.01 2.2 0 .21.15.46.55.38A8 8 0 0 0 17.5 7.5C17.5 5.01 15.49 3 13 3z" transform="scale(0.8) translate(1, 1)" fill="#fff"/>
    <text x="475" y="140" transform="scale(.1)" textLength="480">Powered by</text>
    <text x="1065" y="140" transform="scale(.1)" textLength="470">GitHub</text>
  </g>
</svg>